# xmcd
#
# Track frame offsets: 
#        150
#        16658
#        45827
#        57327
#        68504
#        91449
#        104859
#        122654
#        138255
#        165978
#        186215
#        198998
#        211368
#        226158
#        240457
#        257026
#        267151
#        292901
#        305582
#        316959
#        336793
#
# Disc length: 4757 seconds
#
# Revision: 0
# Processed by: cddbd v1.5.1PL2 Copyright (c) Steve Scherf et al.
# Submitted via: ExactAudioCopy v0.95a4
#
DISCID=1e129315
DTITLE=Various Artist - Sex, drugs and rock'n'roll
DYEAR=1970
DGENRE=Hard Rock
TTITLE0=Led Zeppelin - Rock and Roll
TTITLE1=Deep Purple - Hiighway Star
TTITLE2=Uriah Heep - Easy Livin'
TTITLE3=The Beatles - Rock and Roll Music
TTITLE4=The Guess Who - American Woman
TTITLE5=Jefferson Airplane - Somebody To Love
TTITLE6=Carlos Santana - She's Not There
TTITLE7=Ac Dc - Highway To Hell
TTITLE8=Budgie - Bredfan
TTITLE9=Black Sabbath - Children of the Grave
TTITLE10=Fleetwood Mac - Black Magic Woman
TTITLE11=Led Zeppelin - Good Times Bad Times
TTITLE12=Rainbow - Since You Been Gone
TTITLE13=Eric Clapton - Layla
TTITLE14=Ten Years After - I'd Love To Change the World
TTITLE15=The Doors - Take It As It Comes
TTITLE16=Thin Lizzy - Whisky In The Jar
TTITLE17=Fleetwood Mac - My Baby's Good To Me
TTITLE18=Jefferson Airplane - White Rabbit
TTITLE19=Carlos Santana - Mother's doughter
TTITLE20=Aerosmith - Mama Kin
EXTD=
EXTT0=
EXTT1=
EXTT2=
EXTT3=
EXTT4=
EXTT5=
EXTT6=
EXTT7=
EXTT8=
EXTT9=
EXTT10=
EXTT11=
EXTT12=
EXTT13=
EXTT14=
EXTT15=
EXTT16=
EXTT17=
EXTT18=
EXTT19=
EXTT20=
PLAYORDER=
